<svg xmlns="http://www.w3.org/2000/svg" viewBox="0 0 32 32">
  <defs>
    <linearGradient id="bg" x1="0" y1="0" x2="32" y2="32" gradientUnits="userSpaceOnUse">
      <stop offset="0" stop-color="#6366f1"/>
      <stop offset="1" stop-color="#4f46e5"/>
    </linearGradient>
  </defs>
  <rect width="32" height="32" rx="7" fill="url(#bg)"/>
  <g fill="none" stroke="#ffffff" stroke-width="2" stroke-linecap="round" stroke-linejoin="round" transform="translate(4 4)">
    <path d="M4.5 3.5h15L21 8H3l1.5-4.5Z"/>
    <path d="M3 8v1.5a2.25 2.25 0 0 0 4.5 0V8"/>
    <path d="M7.5 8v1.5a2.25 2.25 0 0 0 4.5 0V8"/>
    <path d="M12 8v1.5a2.25 2.25 0 0 0 4.5 0V8"/>
    <path d="M16.5 8v1.5a2.25 2.25 0 0 0 4.5 0V8"/>
    <path d="M2.5 15h19"/>
    <path d="M4.5 20.5V15"/>
    <path d="M19.5 20.5V15"/>
  </g>
</svg>
